<?xml version="1.0" encoding="utf-8"?>
<!-- Generator: Adobe Illustrator 17.0.0, SVG Export Plug-In . SVG Version: 6.00 Build 0)  -->
<!DOCTYPE svg PUBLIC "-//W3C//DTD SVG 1.1//EN" "http://www.w3.org/Graphics/SVG/1.1/DTD/svg11.dtd">
<svg version="1.1" id="Layer_1" xmlns="http://www.w3.org/2000/svg" xmlns:xlink="http://www.w3.org/1999/xlink" x="0px" y="0px"
	 width="260px" height="260px" viewBox="0 0 260 260" enable-background="new 0 0 260 260" xml:space="preserve">
<g id="logo1_3_">
	
		<polygon fill="#FF9A16" stroke="#231F20" stroke-width="2.8346" stroke-linecap="round" stroke-linejoin="round" stroke-miterlimit="10" points="
		77.481,126.75 129.981,74.25 182.481,126.75 182.481,217.7 159.898,227.917 145.148,231.083 129.981,232.25 115.112,230.705 
		99.648,227.583 87.867,222.963 77.481,217.7 	"/>
	
		<path fill="#BF3E21" stroke="#FFFFFF" stroke-width="2.8346" stroke-linecap="round" stroke-linejoin="round" stroke-miterlimit="10" d="
		M182.481,217.7c4.221-2.574,7.064-3.97,12.121-8.185c3.795-3.163,16.924-16.312,19.889-20.442c1.271-1.77,5.427-7.269,8.893-14.31
		c3.466-7.041,6.243-15.622,8.462-22.453c0.898-2.765,2.257-10.256,2.827-17.481c0.447-5.663,0.222-11.243,0.156-13.722
		c-0.179-6.738-2.092-16.036-3.87-23.226c-1.465-5.923-4.317-12.2-7.045-17.896l-41.435,46.765V217.7z"/>
	
		<polygon fill="#F2BE7E" stroke="#FFFFFF" stroke-width="2.8346" stroke-linecap="round" stroke-linejoin="round" stroke-miterlimit="10" points="
		77.481,217.7 65.895,209.929 53.673,198.874 45.545,189.175 36.191,174.006 27.579,150.061 25.394,133.625 25.394,117.394 
		29.888,94.94 36.191,80.149 77.481,126.75 	"/>
	
		<path fill="#205C81" stroke="#FFFFFF" stroke-width="5.6693" stroke-linecap="round" stroke-linejoin="round" stroke-miterlimit="10" d="
		M36.191,80.149l41.29,46.601l52.5-52.5l52.5,52.5l41.435-46.765l0.08-0.043c-17.208-34.497-52.845-58.192-94.015-58.192
		c-41.201,0-76.859,23.73-94.053,58.268"/>
	<circle fill="none" stroke="#205C81" stroke-width="7.0866" stroke-miterlimit="10" cx="129.981" cy="126.75" r="105"/>
	<path fill="#FFFFFF" d="M147.481,168.671c0,1.148-0.931,2.079-2.079,2.079H114.56c-1.148,0-2.079-0.931-2.079-2.079v-30.842
		c0-1.148,0.931-2.079,2.079-2.079h30.842c1.148,0,2.079,0.931,2.079,2.079V168.671z"/>
</g>
<text transform="matrix(1 0 0 1 100.9689 195.7188)" display="none" fill="#FFFFFF" font-family="'MyriadPro-Regular'" font-size="88">H</text>
</svg>
