<?xml version="1.0" encoding="utf-8"?>
<!-- Generator: Adobe Illustrator 17.0.0, SVG Export Plug-In . SVG Version: 6.00 Build 0)  -->
<!DOCTYPE svg PUBLIC "-//W3C//DTD SVG 1.1//EN" "http://www.w3.org/Graphics/SVG/1.1/DTD/svg11.dtd">
<svg version="1.1" id="Layer_1" xmlns="http://www.w3.org/2000/svg" xmlns:xlink="http://www.w3.org/1999/xlink" x="0px" y="0px"
	 width="385px" height="79px" viewBox="0 0 385 79" enable-background="new 0 0 385 79" xml:space="preserve">
<rect x="60.5" y="8.75" display="none" fill="#F1F2F2" width="53.25" height="53.5"/>
<g>
	
		<polygon fill="#FF9A16" stroke="#FFFFFF" stroke-width="1.4173" stroke-linecap="round" stroke-linejoin="round" stroke-miterlimit="10" points="
		75.576,35.593 87.115,24.055 98.654,35.593 98.654,55.583 93.69,57.829 90.449,58.525 87.115,58.781 83.847,58.441 80.448,57.755 
		77.859,56.74 75.576,55.583 	"/>
	<path fill="#BF3E21" stroke="#FFFFFF" stroke-width="1.4173" stroke-miterlimit="10" d="M98.654,55.583
		c0.928-0.566,1.553-0.873,2.664-1.799c0.834-0.695,3.72-3.585,4.371-4.493c0.279-0.389,1.193-1.598,1.955-3.145
		s1.372-3.434,1.86-4.935c0.197-0.608,0.496-2.254,0.621-3.842c0.098-1.245,0.049-2.471,0.034-3.016
		c-0.039-1.481-0.46-3.524-0.851-5.105c-0.322-1.302-0.949-2.681-1.548-3.933l-9.107,10.278V55.583z"/>
	
		<polygon fill="#F2BE7E" stroke="#FFFFFF" stroke-width="1.4173" stroke-linecap="round" stroke-linejoin="round" stroke-miterlimit="10" points="
		75.576,55.583 73.03,53.875 70.344,51.445 68.557,49.314 66.501,45.98 64.608,40.717 64.128,37.104 64.128,33.537 65.116,28.602 
		66.501,25.351 75.576,35.593 	"/>
	
		<path fill="#205C81" stroke="#FFFFFF" stroke-width="2.8346" stroke-linecap="round" stroke-linejoin="round" stroke-miterlimit="10" d="
		M66.501,25.351l9.075,10.242l11.539-11.539l11.539,11.539l9.107-10.278l0.018-0.009c-3.782-7.582-11.615-12.79-20.663-12.79
		c-9.055,0-16.893,5.216-20.672,12.807"/>
	<path fill="#FFFFFF" d="M90.961,44.807c0,0.252-0.205,0.457-0.457,0.457h-6.779c-0.252,0-0.457-0.205-0.457-0.457v-6.779
		c0-0.252,0.205-0.457,0.457-0.457h6.779c0.252,0,0.457,0.205,0.457,0.457V44.807z"/>
</g>
<rect x="7.5" y="8.75" display="none" fill="#F1F2F2" width="41.5" height="52.56"/>
<rect x="125.75" y="8.75" display="none" fill="#F1F2F2" width="254.75" height="52.56"/>
<g>
	<path fill="#205C81" d="M126.253,9.253h6.984v45.361h26.424v6.695h-33.408V9.253z"/>
	<path fill="#205C81" d="M171.037,9.253h6.984V61.31h-6.984V9.253z"/>
	<path fill="#205C81" d="M192.996,61.31V9.253h14.185c5.136,0,9.515,0.792,13.14,2.376c3.624,1.584,6.54,3.672,8.748,6.264
		c2.207,2.592,3.827,5.461,4.86,8.604c1.031,3.145,1.548,6.276,1.548,9.396c0,3.937-0.684,7.465-2.052,10.584
		c-1.368,3.121-3.253,5.785-5.652,7.992c-2.4,2.208-5.147,3.9-8.244,5.076c-3.096,1.177-6.372,1.764-9.828,1.764H192.996z
		 M199.98,54.614h8.353c2.88,0,5.531-0.433,7.955-1.297c2.424-0.863,4.536-2.111,6.337-3.743c1.8-1.632,3.203-3.637,4.212-6.013
		c1.008-2.376,1.512-5.076,1.512-8.1c0-3.215-0.529-6.036-1.584-8.46c-1.057-2.423-2.496-4.452-4.32-6.084
		c-1.824-1.631-3.888-2.868-6.191-3.708c-2.305-0.839-4.729-1.26-7.272-1.26h-9V54.614z"/>
	<path fill="#205C81" d="M239.221,61.31l22.752-54.216h0.432l22.681,54.216h-7.992l-16.992-43.272l4.968-3.24L246.061,61.31H239.221
		z M252.541,41.582h19.368l2.304,6.048h-23.688L252.541,41.582z"/>
	<path fill="#205C81" d="M291.06,61.31c0.528-0.767,1.332-1.943,2.412-3.527s2.34-3.456,3.781-5.616
		c1.439-2.16,2.986-4.488,4.643-6.984c1.656-2.495,3.359-5.04,5.113-7.632c1.752-2.592,3.455-5.124,5.111-7.596
		c1.656-2.472,3.203-4.776,4.645-6.912c1.439-2.135,2.699-3.983,3.779-5.544c1.08-1.559,1.883-2.7,2.412-3.42l0.936,1.872h-24.047
		c-0.912,0-1.826-0.168-2.736-0.504c-0.912-0.335-1.656-0.839-2.232-1.512c-0.576-0.672-0.863-1.464-0.863-2.376V6.662h6.479v0.936
		c0,0.864,0.168,1.356,0.506,1.476c0.334,0.12,0.91,0.18,1.727,0.18h31.176l-31.463,46.224l-0.432-0.863h32.76v6.695H291.06z"/>
	<path fill="#205C81" d="M346.14,9.253h33.84v6.696h-26.856v15.84H377.1v6.696h-23.977v16.129h27.864v6.695H346.14V9.253z"/>
</g>
<g>
	<path fill="#205C81" d="M48.672,9.253V61.31H41.76V38.485H14.472V61.31H7.488V9.253h6.984v22.608H41.76V9.253H48.672z"/>
</g>
<g>
	<path fill="#205C81" d="M87.094,14.307c11.772,0,21.35,9.577,21.35,21.35s-9.577,21.35-21.35,21.35s-21.35-9.577-21.35-21.35
		S75.322,14.307,87.094,14.307 M87.094,9.062C72.406,9.062,60.5,20.969,60.5,35.656S72.406,62.25,87.094,62.25
		s26.594-11.906,26.594-26.594S101.781,9.062,87.094,9.062L87.094,9.062z"/>
</g>
<g>
</g>
<g>
</g>
<g>
</g>
<g>
</g>
<g>
</g>
<g>
</g>
</svg>
