<?xml version="1.0" encoding="utf-8"?>
<!-- Generator: Adobe Illustrator 17.0.0, SVG Export Plug-In . SVG Version: 6.00 Build 0)  -->
<!DOCTYPE svg PUBLIC "-//W3C//DTD SVG 1.1//EN" "http://www.w3.org/Graphics/SVG/1.1/DTD/svg11.dtd">
<svg version="1.1" id="Layer_1" xmlns="http://www.w3.org/2000/svg" xmlns:xlink="http://www.w3.org/1999/xlink" x="0px" y="0px"
	 width="250px" height="250px" viewBox="0 0 250 250" enable-background="new 0 0 250 250" xml:space="preserve">
<g>
	<g>
		<g>
			<path fill="#76C1FF" d="M115.879,183.624l-0.05-4.929c1.07-0.011,2.149-0.034,3.238-0.07l0.198-0.004
				c1.77-0.034,3.71-0.167,5.765-0.397l0.548,4.898c-2.206,0.247-4.298,0.39-6.219,0.427l-0.133,0.003
				C118.1,183.589,116.984,183.613,115.879,183.624z M106.284,183.411c-3.233-0.18-6.453-0.476-9.571-0.878l0.631-4.889
				c3.001,0.387,6.101,0.671,9.215,0.845L106.284,183.411z M135.156,181.518l-1.069-4.812c2.978-0.661,5.962-1.483,8.87-2.443
				l1.544,4.681C141.438,179.955,138.294,180.821,135.156,181.518z M87.221,180.931c-3.177-0.668-6.322-1.469-9.346-2.38
				l1.422-4.719c2.889,0.871,5.896,1.636,8.937,2.275L87.221,180.931z M153.539,175.451l-2.006-4.503
				c2.794-1.245,5.548-2.646,8.187-4.163l2.457,4.272C159.392,172.66,156.486,174.137,153.539,175.451z M64.746,173.61
				c-3.013-1.222-1.949-0.857-4.762-2.338l2.296-4.362c2.669,1.405,1.457,0.971,4.318,2.131L64.746,173.61z M51.656,166.311
				c-2.708-1.817-5.316-3.788-7.748-5.857l3.193-3.755c2.292,1.949,4.748,3.805,7.301,5.519L51.656,166.311z M170.314,165.795
				l-2.888-3.994c2.466-1.783,4.869-3.721,7.143-5.758l3.289,3.671C175.457,161.865,172.919,163.911,170.314,165.795z
				 M36.885,153.715c-2.228-2.42-4.291-4.974-6.13-7.59l4.032-2.834c1.716,2.44,3.641,4.824,5.723,7.086L36.885,153.715z
				 M184.73,152.891l-3.646-3.316c2.037-2.24,4.002-4.627,5.839-7.095l3.953,2.944C188.942,148.021,186.875,150.532,184.73,152.891z
				 M25.712,137.733c-1.513-3.004-2.757-6.072-3.698-9.12l4.71-1.453c0.859,2.786,2,5.596,3.39,8.355L25.712,137.733z
				 M196.276,137.421l-4.207-2.568c1.57-2.573,3.07-5.288,4.457-8.069l4.411,2.2C199.487,131.89,197.919,134.729,196.276,137.421z
				 M20.033,118.888c-0.127-1.324-0.191-2.645-0.19-3.929c0-2.106,0.172-4.17,0.512-6.132l4.857,0.84
				c-0.291,1.686-0.439,3.466-0.439,5.293c-0.001,1.128,0.056,2.291,0.167,3.459L20.033,118.888z M72.773,116.985
				c-0.158-2.517-1.015-5.153-2.548-7.835l4.279-2.446c1.911,3.342,2.984,6.698,3.188,9.974L72.773,116.985z M64.809,102.325
				c-2.114-2.036-4.486-3.837-7.049-5.352l2.507-4.244c2.894,1.709,5.573,3.743,7.963,6.045L64.809,102.325z M28.068,101.659
				l-4.246-2.504c1.813-3.073,4.2-5.642,7.094-7.637l2.797,4.059C31.413,97.162,29.514,99.209,28.068,101.659z M49.708,93.483
				c-2.965-0.829-5.834-1.111-8.408-0.83l-0.534-4.9c3.198-0.348,6.699-0.015,10.27,0.983L49.708,93.483z"/>
		</g>
		<g>
			<path fill="#76C1FF" d="M69.771,132.687c-1.89-1.769-3.424-3.102-5.025-5.447l4.071-2.779c0.305,0.446,0.64,0.888,1.003,1.322
				c0.35-0.418,0.668-0.845,0.954-1.279l4.114,2.715C73.293,129.636,71.678,130.967,69.771,132.687z"/>
		</g>
		<g>
			<path fill="#76C1FF" d="M26.821,183.581l-0.131-4.927c3.182-0.084,6.353-0.279,9.424-0.579l0.479,4.906
				C33.407,183.292,30.119,183.494,26.821,183.581z M46.309,181.658l-0.855-4.854c3.12-0.55,6.212-1.228,9.189-2.016l1.26,4.765
				C52.792,180.375,49.565,181.083,46.309,181.658z M68.767,175.274l-1.687-4.631c2.962-1.079,2.396-0.962,5.168-2.293l2.133,4.444
				C71.463,174.194,71.88,174.14,68.767,175.274z M83.049,168.065l-2.587-4.196c2.672-1.647,5.25-3.442,7.665-5.335l3.041,3.879
				C88.609,164.42,85.877,166.321,83.049,168.065z M98.591,155.845l-3.485-3.486c2.217-2.216,4.283-4.564,6.14-6.979l3.908,3.005
				C103.165,150.969,100.958,153.479,98.591,155.845z M110.662,140.078l-4.296-2.417c1.545-2.746,2.845-5.559,3.866-8.36
				l4.632,1.687C113.752,134.041,112.338,137.099,110.662,140.078z M117.403,121.223l-4.871-0.75c0.298-1.939,0.45-3.856,0.45-5.698
				c0-1.109-0.055-2.207-0.164-3.265l4.903-0.504c0.126,1.224,0.19,2.493,0.19,3.769
				C117.911,116.867,117.74,119.036,117.403,121.223z M66.366,116.82l-4.929-0.024l-0.001-0.071c0-3.388,0.903-6.84,2.685-10.259
				l4.371,2.278c-1.412,2.708-2.127,5.393-2.127,7.981L66.366,116.82z M110.519,103.099c-1.282-2.644-3.042-4.883-5.233-6.655
				l3.1-3.832c2.759,2.231,4.969,5.037,6.569,8.338L110.519,103.099z M73.816,101.726L70.371,98.2
				c2.434-2.377,5.192-4.442,8.196-6.139l2.424,4.292C78.359,97.839,75.944,99.647,73.816,101.726z M89.253,93.091l-1.097-4.805
				c3.688-0.841,7.301-0.948,10.571-0.309l-0.946,4.838C95.188,92.307,92.267,92.402,89.253,93.091z"/>
		</g>
		<g>
			<path fill="#76C1FF" d="M16.95,183.516c-1.554-0.061-3.131-0.145-4.686-0.251l0.334-4.918c1.508,0.103,3.036,0.184,4.544,0.243
				L16.95,183.516z"/>
		</g>
	</g>
	<g>
		<g>
			<polygon fill="#FF902C" points="202.503,113.365 190.437,116.451 189.493,119.025 200.989,120.315 			"/>
			<polygon fill="#FF6510" points="206.121,114.69 213.342,124.839 212.4,127.413 202.791,120.975 			"/>
		</g>
		<g>
			<path fill="#FF902C" d="M183.771,99.956c-0.207,0.564-0.83,0.854-1.395,0.647l0,0c-0.563-0.206-0.853-0.831-0.646-1.395
				l2.037-5.563c0.207-0.565,0.831-0.854,1.394-0.649l0,0c0.565,0.207,0.855,0.832,0.648,1.396L183.771,99.956z"/>
			<path fill="#FF902C" d="M192.536,100.951c-0.207,0.564-0.831,0.854-1.396,0.647l0,0c-0.564-0.207-0.853-0.831-0.647-1.395
				l2.037-5.563c0.207-0.565,0.831-0.855,1.395-0.648l0,0c0.564,0.207,0.854,0.832,0.647,1.396L192.536,100.951z"/>
			<path fill="#FF902C" d="M201.299,101.945c-0.207,0.565-0.831,0.855-1.395,0.648l0,0c-0.564-0.207-0.855-0.831-0.648-1.397
				l2.036-5.563c0.207-0.565,0.834-0.855,1.398-0.648l0,0c0.564,0.206,0.854,0.832,0.647,1.397L201.299,101.945z"/>
		</g>
		<g>
			<path fill="#FF902C" d="M229.083,116.549c-0.207,0.564,0.083,1.189,0.647,1.395l0,0c0.563,0.206,1.188-0.084,1.394-0.648
				l2.037-5.563c0.207-0.565-0.083-1.189-0.646-1.395l0,0c-0.566-0.207-1.189,0.083-1.396,0.648L229.083,116.549z"/>
			<path fill="#FF902C" d="M221.748,111.649c-0.206,0.564,0.083,1.188,0.648,1.395l0,0c0.564,0.207,1.189-0.083,1.395-0.647
				l2.037-5.564c0.207-0.565-0.082-1.189-0.647-1.396l0,0c-0.564-0.207-1.189,0.083-1.395,0.648L221.748,111.649z"/>
			<path fill="#FF902C" d="M214.415,106.748c-0.207,0.565,0.084,1.19,0.648,1.396l0,0c0.564,0.207,1.19-0.082,1.397-0.647
				l2.038-5.563c0.207-0.565-0.084-1.191-0.649-1.397l0,0c-0.564-0.207-1.19,0.084-1.397,0.649L214.415,106.748z"/>
		</g>
		<g>
			<path fill="#76C1FF" d="M192.428,85.215l-1.221,3.334c-0.238,0.65-0.147,1.376,0.245,1.947l0.812,1.182l2.447-0.669l1.6-4.371
				L192.428,85.215z"/>
			<path fill="#76C1FF" d="M201.031,84.351l-1.221,3.335c-0.237,0.65-0.148,1.375,0.245,1.946l0.811,1.181l2.448-0.669l1.601-4.371
				L201.031,84.351z"/>
			<path fill="#FFD546" d="M210.654,88.037l-4.549,12.424l-5.29-1.938l-26.372-2.555c1.552-2.719,2.134-4.509,4.391-4.735
				L210.654,88.037z"/>
		</g>
		<g>
			<path fill="#76C1FF" d="M231.993,99.704l-1.221,3.334c-0.238,0.65-0.777,1.145-1.445,1.328l-1.382,0.378l-1.438-2.091
				l1.601-4.371L231.993,99.704z"/>
			<path fill="#76C1FF" d="M225.983,93.489l-1.221,3.335c-0.239,0.65-0.776,1.145-1.445,1.327l-1.382,0.378l-1.438-2.091
				l1.601-4.371L225.983,93.489z"/>
			<path fill="#FFAC1A" d="M216.254,90.088l-4.549,12.424l5.29,1.937l21.786,15.08c0.571-3.079,1.284-4.82-0.294-6.451
				L216.254,90.088z"/>
		</g>
		<g>
			<path fill="#FF9912" d="M220.659,69.388l-19.159,52.32c-1.436-1.606-0.512-5.639,2.447-15.254
				c1.619-5.261,3.847-12.195,6.63-21.316C213.896,74.676,216.416,69.463,220.659,69.388z"/>
			<path fill="#FF6010" d="M220.659,69.388l-19.159,52.32c2.134-0.298,4.033-3.975,7.984-13.226
				c2.161-5.063,4.938-11.795,8.704-20.556C222.41,77.794,223.852,72.186,220.659,69.388z"/>
		</g>
		<path fill="#EF2C06" d="M201.382,124.879c-0.187,0.508-0.749,0.769-1.256,0.583l0,0c-0.507-0.185-0.768-0.748-0.583-1.256
			l2.978-8.131c0.185-0.507,0.748-0.769,1.255-0.583l0,0c0.508,0.185,0.769,0.748,0.583,1.256L201.382,124.879z"/>
	</g>
</g>
</svg>
