<?xml version="1.0" encoding="utf-8"?>
<!-- Generator: Adobe Illustrator 17.0.0, SVG Export Plug-In . SVG Version: 6.00 Build 0)  -->
<!DOCTYPE svg PUBLIC "-//W3C//DTD SVG 1.1//EN" "http://www.w3.org/Graphics/SVG/1.1/DTD/svg11.dtd">
<svg version="1.1" id="Layer_1" xmlns="http://www.w3.org/2000/svg" xmlns:xlink="http://www.w3.org/1999/xlink" x="0px" y="0px"
	 width="360.748px" height="232.243px" viewBox="0 0 360.748 232.243" enable-background="new 0 0 360.748 232.243"
	 xml:space="preserve">
<g>
	<g>
		<path fill="#76C1FF" d="M259.342,38.637l0.083-0.104c1.2-1.501,2.589-3.072,4.128-4.671l3.55,3.419
			c-1.434,1.489-2.722,2.946-3.828,4.329l-0.124,0.155c-0.691,0.842-1.368,1.683-2.028,2.524l-3.877-3.044
			C257.929,40.375,258.628,39.506,259.342,38.637z M255.638,51.763c-1.76,2.575-3.424,5.206-4.946,7.821l-4.26-2.479
			c1.581-2.717,3.31-5.45,5.137-8.123L255.638,51.763z M278.4,21.404l2.771,4.077c-2.533,1.72-5.003,3.586-7.342,5.544l-3.163-3.78
			C273.13,25.182,275.732,23.217,278.4,21.404z M246.358,67.743c-1.347,2.8-2.572,5.65-3.643,8.472l-4.608-1.748
			c1.12-2.953,2.402-5.934,3.809-8.86L246.358,67.743z M295.425,12.197l1.89,4.552c-2.811,1.167-5.601,2.497-8.29,3.954
			l-2.347-4.335C289.516,14.832,292.458,13.429,295.425,12.197z M238.774,89.203c-0.824,2.976-0.429,1.75-0.942,4.723l-4.857-0.838
			c0.54-3.132,0.181-2.067,1.049-5.2L238.774,89.203z M236.751,103.032c-0.198,3.069-0.223,6.148-0.074,9.152l-4.923,0.243
			c-0.158-3.19-0.131-6.458,0.079-9.712L236.751,103.032z M313.977,6.678l0.906,4.845c-3.002,0.561-6.002,1.286-8.919,2.154
			l-1.407-4.724C307.639,8.036,310.808,7.271,313.977,6.678z M333.238,5.066l-0.075,4.929c-3.076-0.047-6.166,0.056-9.183,0.305
			l-0.407-4.912C326.751,5.125,330.002,5.017,333.238,5.066z M352.404,7.109l-0.944,4.838c-3.051-0.595-6.117-1.06-9.114-1.384
			l0.528-4.901C346.011,6.001,349.217,6.487,352.404,7.109z"/>
	</g>
	<g>
		<path fill="#76C1FF" d="M62.092,185.578l-0.129-0.033c-1.863-0.472-3.868-1.086-5.96-1.827l1.645-4.646
			c1.949,0.69,3.808,1.26,5.524,1.695l0.192,0.049c1.052,0.281,2.098,0.549,3.137,0.803l-1.168,4.789
			C64.26,186.145,63.179,185.868,62.092,185.578z M75.576,183.522c3.072,0.538,6.156,0.964,9.166,1.269l-0.496,4.904
			c-3.128-0.316-6.331-0.76-9.52-1.318L75.576,183.522z M38.521,175.352l2.566-4.209c2.614,1.594,5.334,3.072,8.084,4.392
			l-2.133,4.443C44.14,178.588,41.275,177.032,38.521,175.352z M93.963,185.362c3.106,0.068,6.208,0.005,9.22-0.187l0.314,4.919
			c-3.152,0.201-6.396,0.267-9.642,0.196L93.963,185.362z M23.097,163.658l3.363-3.603c2.225,2.077,4.59,4.066,7.028,5.913
			l-2.976,3.929C27.94,167.949,25.445,165.851,23.097,163.658z M116.638,183.393c3.05-0.48,1.771-0.333,4.689-1.095l1.246,4.769
			c-3.075,0.804-1.957,0.69-5.169,1.196L116.638,183.393z M10.4,149.05l4.037-2.829c1.752,2.501,3.653,4.933,5.649,7.23
			l-3.719,3.234C14.258,154.259,12.25,151.691,10.4,149.05z"/>
	</g>
	<g>
		<path fill="#76C1FF" d="M240.196,129.669l-4.847,0.894c-0.639-2.962-1.435-5.956-2.213-9.073l4.808-1.131
			C238.909,123.538,239.606,126.471,240.196,129.669z M241.39,149.442l-4.918-0.335c0.207-3.039,0.213-6.167,0.018-9.295l4.92-0.306
			C241.618,142.847,241.611,146.189,241.39,149.442z M237.15,168.909l-4.588-1.802c1.09-2.775,1.977-5.744,2.637-8.825l4.82,1.033
			C239.302,162.657,238.337,165.885,237.15,168.909z M228.699,183.079c-0.845,0.957-1.733,1.865-2.637,2.699l-3.341-3.624
			c0.781-0.721,1.55-1.508,2.284-2.339c1.22-1.381,2.375-2.918,3.436-4.569l4.147,2.663
			C231.393,179.771,230.084,181.51,228.699,183.079z M191.359,147.49c-1.713,1.939-2.954,4.425-3.689,7.389l-4.784-1.186
			c0.927-3.742,2.536-6.927,4.779-9.466l0.048-0.053l3.71,3.246L191.359,147.49z M217.331,191.482
			c-3.384,1.415-6.898,2.054-10.443,1.9l0.214-4.925c2.815,0.122,5.617-0.39,8.328-1.523L217.331,191.482z M188.833,172.442
			l-4.658,1.612c-1.128-3.261-1.827-6.634-2.078-10.027l4.916-0.363C187.232,166.631,187.845,169.585,188.833,172.442z
			 M199.074,186.209l-2.494,4.252c-2.874-1.686-5.512-4.158-7.718-7.23l4.004-2.875
			C194.669,182.867,196.794,184.872,199.074,186.209z"/>
	</g>
	<g>
		<path fill="#76C1FF" d="M141.667,124.559l4.864,0.8c-0.484,2.942-0.729,6.031-0.728,9.182l-4.929,0.001
			C140.873,131.123,141.14,127.764,141.667,124.559z M146.958,108.932c0.626-1.112,1.303-2.187,2.013-3.192l4.027,2.843
			c-0.613,0.869-1.199,1.799-1.743,2.766c-0.903,1.606-1.711,3.351-2.401,5.187l-4.614-1.734
			C145.018,112.731,145.932,110.756,146.958,108.932z M190.931,135.898c1.268-2.255,1.96-4.946,2.058-7.999l4.926,0.157
			c-0.122,3.853-1.027,7.305-2.687,10.258l-0.035,0.062l-4.308-2.395L190.931,135.898z M156.311,98.331
			c3.012-2.093,6.314-3.455,9.812-4.048l0.824,4.86c-2.778,0.471-5.411,1.56-7.823,3.236L156.311,98.331z M188.168,110.971
			l4.216-2.553c1.787,2.951,3.178,6.103,4.135,9.368l-4.731,1.386C190.952,116.317,189.734,113.558,188.168,110.971z
			 M175.268,99.658l1.547-4.68c3.164,1.046,6.261,2.91,9.063,5.451l-3.312,3.651C180.275,102.001,177.777,100.487,175.268,99.658z"
			/>
	</g>
	<g>
		<path fill="#76C1FF" d="M141.833,142.292l4.628-1.377l0,0c1.569,3.132,2.543,6.644,2.853,10.486l-4.693-0.38
			c-0.246-3.044-1.328-5.386-2.434-7.875L141.833,142.292z M143.709,159.784l4.793,1.153c-0.796,3.308-2.031,6.524-3.672,9.559
			l-4.336-2.344C141.93,165.493,143.013,162.677,143.709,159.784z M135.234,175.31l3.486,3.484
			c-2.674,2.675-5.677,4.688-8.786,5.887l-1.773-4.599C130.627,179.132,133.048,177.497,135.234,175.31z"/>
	</g>
</g>
</svg>
